<?xml version="1.0" standalone="no"?>
<!DOCTYPE svg PUBLIC "-//W3C//DTD SVG 20010904//EN"
 "http://www.w3.org/TR/2001/REC-SVG-20010904/DTD/svg10.dtd">
<svg version="1.0" xmlns="http://www.w3.org/2000/svg"
 width="3840.000000pt" height="2160.000000pt" viewBox="0 0 3840.000000 2160.000000"
 preserveAspectRatio="xMidYMid meet">
<metadata>
Created by potrace 1.12, written by Peter Selinger 2001-2015
</metadata>
<g transform="translate(0.000000,2160.000000) scale(0.100000,-0.100000)"
fill="#000000" stroke="none">
<path d="M0 10800 l0 -10800 19200 0 19200 0 0 10800 0 10800 -19200 0 -19200
0 0 -10800z m17778 -2 l2 -798 -1270 0 -1270 0 0 793 c0 437 3 797 7 800 3 4
574 6 1267 5 l1261 -3 3 -797z m3076 708 c95 -40 104 -176 14 -222 -43 -22
-121 -14 -153 16 -107 100 2 263 139 206z m-2179 -161 c126 -33 207 -92 252
-183 25 -51 28 -68 28 -157 0 -115 -17 -164 -81 -234 -81 -91 -189 -130 -376
-138 l-128 -6 -2 -206 -3 -206 -120 0 -120 0 -3 573 -2 572 248 0 c191 0 261
-4 307 -15z m615 -555 c0 -321 4 -346 59 -374 64 -34 176 -14 234 41 l27 27 0
298 0 298 120 0 120 0 -2 -432 -3 -433 -82 -3 c-91 -3 -95 -1 -108 71 -4 20
-9 37 -11 37 -3 0 -27 -15 -54 -34 -75 -52 -141 -71 -240 -70 -103 0 -172 26
-226 86 -69 76 -69 77 -72 446 l-3 332 120 0 121 0 0 -290z m902 235 c17 -107
14 -105 66 -45 65 74 123 100 230 100 124 0 124 0 101 -111 -11 -51 -21 -95
-24 -97 -2 -3 -24 1 -49 7 -25 6 -57 11 -73 11 -85 0 -169 -59 -193 -135 -10
-32 -20 -292 -20 -533 0 -9 -35 -12 -115 -12 l-115 0 0 435 0 436 92 -3 93 -3
7 -50z m728 -380 l0 -436 -117 3 -118 3 -3 433 -2 432 120 0 120 0 0 -435z
m639 410 c29 -10 55 -25 58 -33 3 -8 -5 -47 -17 -88 -19 -60 -27 -73 -39 -68
-9 4 -47 16 -86 26 -122 34 -225 10 -225 -52 0 -42 30 -65 128 -95 226 -70
292 -131 292 -267 0 -114 -77 -205 -205 -243 -110 -33 -263 -29 -382 11 -74
24 -75 28 -47 117 14 42 29 77 35 77 5 0 38 -10 72 -21 88 -31 215 -32 254 -3
36 27 43 74 14 101 -11 11 -74 36 -138 56 -202 62 -258 118 -258 258 0 65 4
81 27 116 35 53 86 92 151 115 69 25 284 20 366 -7z m410 -12 c6 -21 11 -46
11 -55 0 -25 17 -22 52 8 17 14 54 37 82 52 46 25 61 27 161 27 126 0 169 -16
223 -81 l31 -37 37 33 c21 18 63 45 94 59 48 23 68 26 160 26 116 0 156 -13
211 -68 65 -64 64 -58 67 -445 l3 -353 -118 3 -118 3 -5 312 c-5 310 -5 312
-29 337 -48 51 -158 41 -230 -21 l-41 -34 -2 -297 -3 -297 -115 0 -115 0 -5
300 c-4 260 -7 304 -22 332 -39 70 -157 66 -242 -8 l-46 -41 0 -294 0 -295
-117 3 -118 3 -3 433 -2 432 94 0 95 0 10 -37z"/>
<path d="M15420 10795 l0 -635 1095 0 1095 0 0 635 0 635 -1095 0 -1095 0 0
-635z"/>
<path d="M18372 10998 l3 -173 99 2 c170 3 230 53 224 187 -4 64 -6 70 -40
101 -46 43 -91 55 -201 55 l-87 0 2 -172z"/>
</g>
</svg>
